HIERARCHY
ROOT Hips
{
 OFFSET 0.000000 0.000000 0.000000
 CHANNELS 6 Xposition Yposition Zposition Yrotation Xrotation Zrotation
 JOINT Chest
 {
  OFFSET 0.000000 9.585900 0.002600
  CHANNELS 3 Yrotation Xrotation Zrotation
  JOINT Chest2
  {
   OFFSET 0.000000 9.601200 -0.005300
   CHANNELS 3 Yrotation Xrotation Zrotation
   JOINT Chest3
   {
    OFFSET 0.000000 9.561800 0.000000
    CHANNELS 3 Yrotation Xrotation Zrotation
    JOINT Chest4
    {
     OFFSET 0.000000 9.552100 0.000000
     CHANNELS 3 Yrotation Xrotation Zrotation
     JOINT Neck
     {
      OFFSET 0.000000 14.453000 0.000000
      CHANNELS 3 Yrotation Xrotation Zrotation
      JOINT Head
      {
       OFFSET 0.000000 8.936500 -0.011300
       CHANNELS 3 Yrotation Xrotation Zrotation
       End Site
       {
        OFFSET 0.000000 17.073600 -0.006000
       }
      }
     }
     JOINT RightCollar
     {
      OFFSET -2.921100 9.558500 0.000000
      CHANNELS 3 Yrotation Xrotation Zrotation
      JOINT RightShoulder
      {
       OFFSET -13.519700 0.000000 0.000000
       CHANNELS 3 Yrotation Xrotation Zrotation
       JOINT RightElbow
       {
        OFFSET 0.000000 -29.696600 0.000000
        CHANNELS 3 Yrotation Xrotation Zrotation
        JOINT RightWrist
        {
         OFFSET 0.000000 -24.004700 0.000000
         CHANNELS 3 Yrotation Xrotation Zrotation
         End Site
         {
          OFFSET 0.000000 -17.728500 0.000000
         }
        }
       }
      }
     }
     JOINT LeftCollar
     {
      OFFSET 2.921100 9.558500 0.000000
      CHANNELS 3 Yrotation Xrotation Zrotation
      JOINT LeftShoulder
      {
       OFFSET 13.519700 0.000000 0.000000
       CHANNELS 3 Yrotation Xrotation Zrotation
       JOINT LeftElbow
       {
        OFFSET 0.000000 -29.696600 0.000000
        CHANNELS 3 Yrotation Xrotation Zrotation
        JOINT LeftWrist
        {
         OFFSET 0.000000 -24.004700 0.000000
         CHANNELS 3 Yrotation Xrotation Zrotation
         End Site
         {
          OFFSET 0.000000 -17.728500 0.000000
         }
        }
       }
      }
     }
    }
   }
  }
 }
 JOINT RightHip
 {
  OFFSET -7.771700 -0.012900 -0.001300
  CHANNELS 3 Yrotation Xrotation Zrotation
  JOINT RightKnee
  {
   OFFSET 0.000000 -40.869800 0.001200
   CHANNELS 3 Yrotation Xrotation Zrotation
   JOINT RightAnkle
   {
    OFFSET 0.000000 -39.717900 0.002100
    CHANNELS 3 Yrotation Xrotation Zrotation
    JOINT RightToe
    {
     OFFSET 0.000000 -4.965400 11.033500
     CHANNELS 3 Yrotation Xrotation Zrotation
     End Site
     {
      OFFSET 0.000000 -1.423100 5.872300
     }
    }
   }
  }
 }
 JOINT LeftHip
 {
  OFFSET 7.771700 -0.012900 -0.001300
  CHANNELS 3 Yrotation Xrotation Zrotation
  JOINT LeftKnee
  {
   OFFSET 0.000000 -40.869800 0.001200
   CHANNELS 3 Yrotation Xrotation Zrotation
   JOINT LeftAnkle
   {
    OFFSET 0.000000 -39.717900 0.002100
    CHANNELS 3 Yrotation Xrotation Zrotation
    JOINT LeftToe
    {
     OFFSET 0.000000 -4.965400 11.033500
     CHANNELS 3 Yrotation Xrotation Zrotation
     End Site
     {
      OFFSET 0.000000 -1.423100 5.872300
     }
    }
   }
  }
 }
}
MOTION
Frames: 5
Frame Time: 0.008333
-85.667351 62.069465 18.268277 173.232765 -49.811743 -1.350188 4.287512 26.315302 1.515727 0.609036 4.408223 0.252170 1.036242 6.993496 0.430574 3.351996 21.448185 1.778721 -0.101526 15.619520 0.147488 -0.236351 -6.790187 0.317564 2.845007 4.254948 2.737474 -12.608701 -4.717152 -11.562479 -124.850030 -56.657863 157.216101 4.062901 -0.000958 -9.648820 -5.949745 1.584715 1.310940 5.523215 -3.764295 11.114170 136.059493 -68.373412 -159.135030 4.286370 -2.289551 3.554061 3.113177 -17.425116 -2.637411 -1.449242 60.125143 -4.575515 2.870305 -4.532948 10.927303 0.352046 -0.457417 0.171394 -3.170383 -13.963842 6.142014 27.712445 76.033326 29.215373 0.640223 -11.037656 -5.012579 0.246336 0.733843 0.120701
-85.671958 62.070484 18.265359 173.263911 -49.818605 -1.357808 4.266458 26.322954 1.502123 0.628948 4.405002 0.255256 1.037491 6.993402 0.431343 3.399609 21.439518 1.783528 -0.137131 15.624039 0.169751 -0.257359 -6.786162 0.332607 2.817432 4.260276 2.760247 -12.608652 -4.722931 -11.566751 -124.838107 -56.662089 157.199878 4.070374 0.001305 -9.645692 -5.979575 1.607942 1.334976 5.484870 -3.794808 11.106709 136.021021 -68.390215 -159.111122 4.286723 -2.283117 3.546566 3.102046 -17.414314 -2.651505 -1.414715 60.137900 -4.551110 2.850910 -4.563760 10.929552 0.353037 -0.460103 0.170370 -3.181657 -13.960552 6.126628 27.719286 76.034109 29.217041 0.628868 -11.036337 -5.004620 0.251966 0.731644 0.122059
-85.675024 62.071037 18.263067 173.280518 -49.822368 -1.363142 4.276493 26.322255 1.507740 0.653883 4.403248 0.261605 1.003287 6.998373 0.427571 3.403695 21.439454 1.784534 -0.126920 15.622627 0.173340 -0.266775 -6.775017 0.370246 2.882887 4.244426 2.772101 -12.598310 -4.722308 -11.572216 -124.860985 -56.682776 157.170675 4.078232 0.001265 -9.643227 -5.953473 1.618097 1.347305 5.443933 -3.810700 11.097772 135.959898 -68.392428 -159.093524 4.296317 -2.274875 3.527896 3.107710 -17.404728 -2.658223 -1.412173 60.143422 -4.546910 2.849515 -4.598761 10.923861 0.346366 -0.451704 0.177992 -3.185803 -13.959254 6.119782 27.715809 76.035764 29.213402 0.618433 -11.036013 -5.002525 0.263669 0.728872 0.124593
-85.678151 62.071031 18.261236 173.291833 -49.822603 -1.363159 4.311518 26.318040 1.530608 0.634064 4.406143 0.255883 0.992785 6.999382 0.425765 3.406777 21.439897 1.785219 -0.119497 15.624877 0.178080 -0.284111 -6.769534 0.390902 2.899632 4.237999 2.781745 -12.606397 -4.723465 -11.575179 -124.837612 -56.693032 157.166966 4.085269 -0.000808 -9.640510 -5.930086 1.625017 1.351088 5.402271 -3.846860 11.090253 135.853845 -68.411515 -159.036461 4.281671 -2.278435 3.547822 3.114467 -17.403506 -2.665352 -1.406072 60.153119 -4.541526 2.841772 -4.619581 10.925243 0.344850 -0.451590 0.178966 -3.187982 -13.960937 6.112627 27.720253 76.033864 29.213877 0.608668 -11.034257 -4.997623 0.269705 0.727694 0.125677
-85.680492 62.071168 18.259387 173.294064 -49.824944 -1.359134 4.319054 26.319834 1.532542 0.640929 4.406159 0.258115 1.019652 6.999353 0.431509 3.395476 21.439686 1.783895 -0.127281 15.627583 0.187976 -0.302897 -6.761378 0.413253 2.878369 4.235544 2.793313 -12.593483 -4.727723 -11.575435 -124.810870 -56.707819 157.161293 4.091472 -0.003904 -9.640446 -5.884686 1.640590 1.368865 5.316410 -3.920924 11.072023 135.712897 -68.453966 -158.935475 4.263080 -2.281442 3.580353 3.119608 -17.402467 -2.667396 -1.395033 60.163741 -4.536396 2.833154 -4.634144 10.930229 0.340630 -0.449575 0.177680 -3.187051 -13.959735 6.108175 27.719013 76.034623 29.206448 0.609976 -11.033912 -4.992239 0.265540 0.726280 0.123681
